<?xml version="1.0"?>
<svg xmlns="http://www.w3.org/2000/svg" height="512px" viewBox="0 0 496 496" width="512px">
<path d="m495.992188 240v-25.824219c0-16.574219-10.433594-31.632812-25.960938-37.464843l-38.039062-14.253907v-6.777343c6.054687-5.433594 10.71875-12.359376 13.398437-20.222657 15.074219-2.585937 26.601563-15.65625 26.601563-31.457031v-32c0-39.703125-32.304688-72-72-72-39.695313 0-72 32.296875-72 72v32c0 15.800781 11.527343 28.871094 26.601562 31.457031 2.679688 7.855469 7.34375 14.78125 13.398438 20.222657v6.777343l-38.046876 14.269531c-1.960937.738282-3.839843 1.648438-5.648437 2.671876-20.472656-11.152344-43.6875-17.765626-68.296875-18.992188v-16.40625h-16v16.40625c-24.609375 1.226562-47.816406 7.832031-68.289062 18.984375-1.183594-.671875-2.453126-1.214844-3.710938-1.765625v-105.625c0-39.703125-32.304688-72-72-72s-72 32.296875-72 72v105.632812c-14.40625 6.335938-24 20.695313-24 36.542969v25.824219h109.648438c-12.417969 21.382812-19.945313 45.863281-21.242188 72h-16.414062v16h16.40625c4.074218 81.832031 69.761718 147.519531 151.59375 151.59375v16.40625h16v-16.40625c81.832031-4.074219 147.519531-69.761719 151.59375-151.59375h16.40625v-16h-16.40625c-1.304688-26.136719-8.832032-50.617188-21.242188-72zm-96-88c-17.648438 0-32-14.351562-32-32v-32.550781c11.710937-1.234375 22.761718-5.503907 32-12.769531 9.238281 7.265624 20.289062 11.535156 32 12.769531v32.550781c0 17.648438-14.351563 32-32 32zm48-34.222656v-27.554688c4.761718 2.777344 8 7.882813 8 13.777344s-3.238282 11-8 13.777344zm-48-101.777344c30.878906 0 56 25.128906 56 56v4.449219c-4.726563-2.753907-10.144532-4.449219-16-4.449219h-1.367188c-12.457031 0-24.167969-4.847656-32.976562-13.65625l-5.65625-5.65625-5.65625 5.65625c-8.808594 8.808594-20.519532 13.65625-32.976563 13.65625h-1.367187c-5.855469 0-11.273438 1.695312-16 4.449219v-4.449219c0-30.871094 25.121093-56 56-56zm-56 88c0-5.894531 3.238281-11 8-13.777344v27.554688c-4.761719-2.777344-8-7.882813-8-13.777344zm56 64c5.617187 0 10.984374-1.023438 16-2.800781v2.800781c0 8.824219-7.175782 16-16 16-8.824219 0-16-7.175781-16-16v-2.800781c5.015624 1.777343 10.382812 2.800781 16 2.800781zm-29.992188 10.792969c4.449219 12.328125 16.152344 21.207031 29.992188 21.207031 13.839843 0 25.542968-8.878906 29.992187-21.207031l34.429687 12.910156c9.320313 3.488281 15.578126 12.519531 15.578126 22.472656v9.824219h-104v.40625c-9.945313-13.277344-21.839844-24.964844-35.351563-34.605469zm-170.007812 130.984375c-4.761719-2.777344-8-7.882813-8-13.777344s3.238281-11 8-13.777344zm21.992187 59.527344 14.695313 14.695312-17.191407 17.183594-9.167969-27.511719zm10.816406-11.808594c4.785157 1.601562 9.878907 2.503906 15.191407 2.503906s10.40625-.902344 15.191406-2.503906l-15.191406 15.191406zm-37.480469 21.800781 12.238282 36.703125h-39.566406v-9.824219c0-9.953125 6.253906-18.984375 15.574218-22.480469zm52.671876 16.015625 20.6875 20.6875h-41.367188zm64.421874-11.609375c9.320313 3.488281 15.578126 12.519531 15.578126 22.472656v9.824219h-39.566407l12.230469-36.703125zm-35.917968 17.480469-17.191406-17.183594 14.695312-14.695312 11.664062 4.375zm-28.503906-57.183594c-17.648438 0-32-14.351562-32-32v-32.550781c11.710937-1.234375 22.761718-5.503907 32-12.769531 9.238281 7.265624 20.289062 11.535156 32 12.769531v32.550781c0 17.648438-14.351563 32-32 32zm48-61.777344c4.761718 2.777344 8 7.882813 8 13.777344s-3.238282 11-8 13.777344zm8-13.773437c-4.726563-2.753907-10.144532-4.449219-16-4.449219h-1.367188c-12.457031 0-24.167969-4.847656-32.976562-13.65625l-5.65625-5.65625-5.65625 5.65625c-8.808594 8.808594-20.519532 13.65625-32.976563 13.65625h-1.367187c-5.855469 0-11.273438 1.695312-16 4.449219v-4.449219c0-30.871094 25.121093-56 56-56 30.878906 0 56 25.128906 56 56zm-208-81.785157-16-21.328124v-.136719c5.015624 1.785156 10.382812 2.800781 16 2.800781 5.617187 0 10.984374-1.023438 16-2.800781v.136719zm48-96.441406c4.761718 2.777344 8 7.882813 8 13.777344s-3.238282 11-8 13.777344zm-48 61.777344c-17.648438 0-32-14.351562-32-32v-32.550781c11.710937-1.234375 22.761718-5.503907 32-12.769531 9.238281 7.265624 20.289062 11.535156 32 12.769531v32.550781c0 17.648438-14.351563 32-32 32zm-48-34.222656c-4.761719-2.777344-8-7.882813-8-13.777344s3.238281-11 8-13.777344zm2.601562 17.679687c2.679688 7.855469 7.34375 14.78125 13.398438 20.222657v6.777343l-24 9v-39.90625c3.230468 1.882813 6.777343 3.25 10.601562 3.90625zm77.398438 20.222657c6.054687-5.433594 10.71875-12.359376 13.398437-20.222657 3.824219-.65625 7.371094-2.015625 10.601563-3.90625v39.90625l-24-9zm-32-139.679688c30.878906 0 56 25.128906 56 56v4.449219c-4.726563-2.753907-10.144532-4.449219-16-4.449219h-1.367188c-12.457031 0-24.167969-4.847656-32.976562-13.65625l-5.65625-5.65625-5.65625 5.65625c-8.808594 8.808594-20.519532 13.65625-32.976563 13.65625h-1.367187c-5.855469 0-11.273438 1.695312-16 4.449219v-4.449219c0-30.871094 25.121093-56 56-56zm-80 208v-9.824219c0-9.953125 6.253906-18.984375 15.574218-22.480469l37.625-14.09375 26.800782 35.734376 26.800781-35.742188 32.550781 12.199219c-13.511719 9.648437-25.40625 21.335937-35.351562 34.613281v-.40625zm88.40625 104h15.59375v-16h-15.59375c4.042968-73.007812 62.585937-131.550781 135.59375-135.59375v16.066406c-35.945313 3.992188-64 34.527344-64 71.527344v32c0 15.800781 11.527343 28.871094 26.601562 31.457031 2.679688 7.855469 7.34375 14.78125 13.398438 20.222657v6.777343l-38.039063 14.261719c-15.527344 5.824219-25.960937 20.882812-25.960937 37.457031v20.847657c-27.511719-24.703126-45.425782-59.757813-47.59375-99.023438zm135.59375 120v15.59375c-31.0625-1.722656-59.535157-13.195312-82.3125-31.59375h180.617187c-22.769531 18.398438-51.25 29.871094-82.3125 31.59375v-15.59375zm151.59375-120c-2.179688 39.265625-20.082032 74.320312-47.59375 99.023438v-20.847657c0-16.574219-10.433594-31.632812-25.960938-37.464843l-38.039062-14.253907v-6.777343c6.054687-5.433594 10.71875-12.359376 13.398437-20.222657 15.074219-2.585937 26.601563-15.65625 26.601563-31.457031v-32c0-37-28.054688-67.535156-64-71.527344v-16.066406c73.007812 4.042969 131.550781 62.585938 135.59375 135.59375h-15.59375v16zm0 0" fill="#e4ffe1"/></svg>
