<svg xmlns="http://www.w3.org/2000/svg" width="1920" height="300"><path d="M1032,153L1019,86L952,155Z" fill="#b9a9cb" stroke="#b9a9cb" stroke-width="1.51"/><path d="M1019,86L948,37L952,155Z" fill="#a0b6d5" stroke="#a0b6d5" stroke-width="1.51"/><path d="M952,155L968,244L1032,153Z" fill="#d394be" stroke="#d394be" stroke-width="1.51"/><path d="M948,37L875,91L952,155Z" fill="#9bb9d7" stroke="#9bb9d7" stroke-width="1.51"/><path d="M952,155L905,225L968,244Z" fill="#d890bb" stroke="#d890bb" stroke-width="1.51"/><path d="M968,244L1005,252L1032,153Z" fill="#dc8cb8" stroke="#dc8cb8" stroke-width="1.51"/><path d="M858,159L905,225L952,155Z" fill="#cb9cc2" stroke="#cb9cc2" stroke-width="1.51"/><path d="M875,91L858,159L952,155Z" fill="#b1aecf" stroke="#b1aecf" stroke-width="1.51"/><path d="M1019,86L1030,-11L948,37Z" fill="#99b1d4" stroke="#99b1d4" stroke-width="1.51"/><path d="M1114,46L1030,-11L1019,86Z" fill="#9faed2" stroke="#9faed2" stroke-width="1.51"/><path d="M1005,252L1098,223L1032,153Z" fill="#df89b7" stroke="#df89b7" stroke-width="1.51"/><path d="M1032,153L1114,46L1019,86Z" fill="#a9b1d2" stroke="#a9b1d2" stroke-width="1.51"/><path d="M1030,-11L988,-20L948,37Z" fill="#91afd5" stroke="#91afd5" stroke-width="1.51"/><path d="M948,37L906,-1L875,91Z" fill="#8fb6d8" stroke="#8fb6d8" stroke-width="1.51"/><path d="M1140,167L1114,46L1032,153Z" fill="#bca7ca" stroke="#bca7ca" stroke-width="1.51"/><path d="M1005,252L1026,271L1098,223Z" fill="#df89b7" stroke="#df89b7" stroke-width="1.51"/><path d="M949,323L1026,271L1005,252Z" fill="#dc8db9" stroke="#dc8db9" stroke-width="1.51"/><path d="M949,323L1005,252L968,244Z" fill="#da8eba" stroke="#da8eba" stroke-width="1.51"/><path d="M988,-20L906,-1L948,37Z" fill="#8cb1d6" stroke="#8cb1d6" stroke-width="1.51"/><path d="M1098,223L1140,167L1032,153Z" fill="#da8eba" stroke="#da8eba" stroke-width="1.51"/><path d="M1114,46L1110,19L1030,-11Z" fill="#9fabd0" stroke="#9fabd0" stroke-width="1.51"/><path d="M1193,13L1110,19L1114,46Z" fill="#a6a8ce" stroke="#a6a8ce" stroke-width="1.51"/><path d="M1140,167L1196,77L1114,46Z" fill="#b3acce" stroke="#b3acce" stroke-width="1.51"/><path d="M1208,237L1178,156L1140,167Z" fill="#e286b5" stroke="#e286b5" stroke-width="1.51"/><path d="M1072,-100L988,-20L1030,-11Z" fill="#96acd3" stroke="#96acd3" stroke-width="1.51"/><path d="M1072,-100L941,-63L988,-20Z" fill="#92aed4" stroke="#92aed4" stroke-width="1.51"/><path d="M988,-20L941,-63L906,-1Z" fill="#8bb1d6" stroke="#8bb1d6" stroke-width="1.51"/><path d="M1110,19L1094,-45L1030,-11Z" fill="#9baad1" stroke="#9baad1" stroke-width="1.51"/><path d="M1193,13L1094,-45L1110,19Z" fill="#a1a6ce" stroke="#a1a6ce" stroke-width="1.51"/><path d="M914,322L949,323L968,244Z" fill="#d890bb" stroke="#d890bb" stroke-width="1.51"/><path d="M1026,271L1127,305L1098,223Z" fill="#e286b5" stroke="#e286b5" stroke-width="1.51"/><path d="M914,322L968,244L905,225Z" fill="#d791bc" stroke="#d791bc" stroke-width="1.51"/><path d="M875,91L797,65L858,159Z" fill="#96bcd9" stroke="#96bcd9" stroke-width="1.51"/><path d="M858,159L799,194L905,225Z" fill="#ce99c1" stroke="#ce99c1" stroke-width="1.51"/><path d="M906,-1L797,65L875,91Z" fill="#8ab9da" stroke="#8ab9da" stroke-width="1.51"/><path d="M789,-3L797,65L906,-1Z" fill="#7fb9db" stroke="#7fb9db" stroke-width="1.51"/><path d="M775,159L799,194L858,159Z" fill="#bea5c9" stroke="#bea5c9" stroke-width="1.51"/><path d="M1178,156L1196,77L1140,167Z" fill="#c99dc3" stroke="#c99dc3" stroke-width="1.51"/><path d="M800,333L914,322L905,225Z" fill="#d395be" stroke="#d395be" stroke-width="1.51"/><path d="M797,65L775,159L858,159Z" fill="#a3b6d4" stroke="#a3b6d4" stroke-width="1.51"/><path d="M949,323L964,344L1026,271Z" fill="#da8eb9" stroke="#da8eb9" stroke-width="1.51"/><path d="M1098,223L1208,237L1140,167Z" fill="#e681b2" stroke="#e681b2" stroke-width="1.51"/><path d="M914,322L964,344L949,323Z" fill="#d890bb" stroke="#d890bb" stroke-width="1.51"/><path d="M1043,377L1127,305L1026,271Z" fill="#e087b6" stroke="#e087b6" stroke-width="1.51"/><path d="M1196,77L1193,13L1114,46Z" fill="#ada7cd" stroke="#ada7cd" stroke-width="1.51"/><path d="M875,-104L789,-3L906,-1Z" fill="#7eb6da" stroke="#7eb6da" stroke-width="1.51"/><path d="M682,164L711,187L775,159Z" fill="#b6abcd" stroke="#b6abcd" stroke-width="1.51"/><path d="M1094,-45L1072,-100L1030,-11Z" fill="#99aad1" stroke="#99aad1" stroke-width="1.51"/><path d="M1221,-46L1072,-100L1094,-45Z" fill="#a0a7cf" stroke="#a0a7cf" stroke-width="1.51"/><path d="M1296,138L1286,54L1196,77Z" fill="#bca5c9" stroke="#bca5c9" stroke-width="1.51"/><path d="M1304,25L1221,-46L1193,13Z" fill="#aca0ca" stroke="#aca0ca" stroke-width="1.51"/><path d="M1127,305L1208,237L1098,223Z" fill="#e581b2" stroke="#e581b2" stroke-width="1.51"/><path d="M964,344L1043,377L1026,271Z" fill="#dc8bb8" stroke="#dc8bb8" stroke-width="1.51"/><path d="M1249,272L1245,228L1208,237Z" fill="#eb7aaf" stroke="#eb7aaf" stroke-width="1.51"/><path d="M941,-63L875,-104L906,-1Z" fill="#85b3d8" stroke="#85b3d8" stroke-width="1.51"/><path d="M1072,-100L875,-104L941,-63Z" fill="#8db0d6" stroke="#8db0d6" stroke-width="1.51"/><path d="M1208,237L1245,228L1178,156Z" fill="#ea7cb0" stroke="#ea7cb0" stroke-width="1.51"/><path d="M1249,272L1208,237L1209,330Z" fill="#eb7baf" stroke="#eb7baf" stroke-width="1.51"/><path d="M1043,377L1080,386L1127,305Z" fill="#e286b5" stroke="#e286b5" stroke-width="1.51"/><path d="M711,187L740,242L799,194Z" fill="#c99dc3" stroke="#c99dc3" stroke-width="1.51"/><path d="M800,333L863,374L914,322Z" fill="#d296bf" stroke="#d296bf" stroke-width="1.51"/><path d="M711,187L799,194L775,159Z" fill="#c0a5c8" stroke="#c0a5c8" stroke-width="1.51"/><path d="M914,322L863,374L964,344Z" fill="#d692bc" stroke="#d692bc" stroke-width="1.51"/><path d="M964,344L863,374L1043,377Z" fill="#d98fba" stroke="#d98fba" stroke-width="1.51"/><path d="M1043,377L799,417L1080,386Z" fill="#da8eba" stroke="#da8eba" stroke-width="1.51"/><path d="M800,333L905,225L799,194Z" fill="#d097c0" stroke="#d097c0" stroke-width="1.51"/><path d="M740,242L800,333L799,194Z" fill="#cc9bc2" stroke="#cc9bc2" stroke-width="1.51"/><path d="M700,50L775,159L797,65Z" fill="#84c2df" stroke="#84c2df" stroke-width="1.51"/><path d="M1193,13L1221,-46L1094,-45Z" fill="#a5a4cd" stroke="#a5a4cd" stroke-width="1.51"/><path d="M1286,54L1193,13L1196,77Z" fill="#b2a4cb" stroke="#b2a4cb" stroke-width="1.51"/><path d="M875,-104L811,-107L789,-3Z" fill="#7ab7dc" stroke="#7ab7dc" stroke-width="1.51"/><path d="M789,-3L700,50L797,65Z" fill="#78bede" stroke="#78bede" stroke-width="1.51"/><path d="M1072,-100L811,-107L875,-104Z" fill="#87b2d8" stroke="#87b2d8" stroke-width="1.51"/><path d="M1296,138L1196,77L1178,156Z" fill="#c89ec4" stroke="#c89ec4" stroke-width="1.51"/><path d="M1209,330L1208,237L1127,305Z" fill="#e87eb1" stroke="#e87eb1" stroke-width="1.51"/><path d="M1192,370L1209,330L1127,305Z" fill="#e87fb1" stroke="#e87fb1" stroke-width="1.51"/><path d="M687,5L700,50L789,-3Z" fill="#6dbfe0" stroke="#6dbfe0" stroke-width="1.51"/><path d="M740,242L728,274L800,333Z" fill="#ca9dc3" stroke="#ca9dc3" stroke-width="1.51"/><path d="M673,195L728,274L740,242Z" fill="#c6a0c5" stroke="#c6a0c5" stroke-width="1.51"/><path d="M1296,138L1178,156L1245,228Z" fill="#e187b5" stroke="#e187b5" stroke-width="1.51"/><path d="M1309,162L1296,138L1245,228Z" fill="#e483b3" stroke="#e483b3" stroke-width="1.51"/><path d="M811,-107L749,-67L789,-3Z" fill="#73bade" stroke="#73bade" stroke-width="1.51"/><path d="M711,187L673,195L740,242Z" fill="#c6a0c5" stroke="#c6a0c5" stroke-width="1.51"/><path d="M700,50L682,164L775,159Z" fill="#95bcd9" stroke="#95bcd9" stroke-width="1.51"/><path d="M749,-67L722,-37L789,-3Z" fill="#6ebcdf" stroke="#6ebcdf" stroke-width="1.51"/><path d="M1350,305L1306,230L1249,272Z" fill="#ee76ad" stroke="#ee76ad" stroke-width="1.51"/><path d="M1080,386L1192,370L1127,305Z" fill="#e582b3" stroke="#e582b3" stroke-width="1.51"/><path d="M1360,90L1304,25L1286,54Z" fill="#b9a1c8" stroke="#b9a1c8" stroke-width="1.51"/><path d="M1306,230L1309,162L1245,228Z" fill="#ee76ad" stroke="#ee76ad" stroke-width="1.51"/><path d="M682,164L673,195L711,187Z" fill="#baa8cb" stroke="#baa8cb" stroke-width="1.51"/><path d="M607,183L673,195L682,164Z" fill="#b6abcd" stroke="#b6abcd" stroke-width="1.51"/><path d="M722,-37L687,5L789,-3Z" fill="#69bde0" stroke="#69bde0" stroke-width="1.51"/><path d="M700,50L617,84L682,164Z" fill="#77c8e3" stroke="#77c8e3" stroke-width="1.51"/><path d="M1286,54L1304,25L1193,13Z" fill="#b3a1c9" stroke="#b3a1c9" stroke-width="1.51"/><path d="M1360,90L1286,54L1296,138Z" fill="#bfa4c8" stroke="#bfa4c8" stroke-width="1.51"/><path d="M1249,272L1306,230L1245,228Z" fill="#ed77ad" stroke="#ed77ad" stroke-width="1.51"/><path d="M1278,357L1249,272L1209,330Z" fill="#ec79ae" stroke="#ec79ae" stroke-width="1.51"/><path d="M863,374L799,417L1043,377Z" fill="#d593bd" stroke="#d593bd" stroke-width="1.51"/><path d="M800,333L799,417L863,374Z" fill="#cf99c0" stroke="#cf99c0" stroke-width="1.51"/><path d="M742,385L799,417L800,333Z" fill="#cc9bc2" stroke="#cc9bc2" stroke-width="1.51"/><path d="M742,385L800,333L728,274Z" fill="#ca9dc3" stroke="#ca9dc3" stroke-width="1.51"/><path d="M654,360L742,385L728,274Z" fill="#c6a0c5" stroke="#c6a0c5" stroke-width="1.51"/><path d="M1221,-46L1284,-84L1072,-100Z" fill="#a7a3cc" stroke="#a7a3cc" stroke-width="1.51"/><path d="M1304,25L1284,-84L1221,-46Z" fill="#ae9ec9" stroke="#ae9ec9" stroke-width="1.51"/><path d="M1192,370L1278,357L1209,330Z" fill="#eb7baf" stroke="#eb7baf" stroke-width="1.51"/><path d="M1309,162L1360,90L1296,138Z" fill="#d098c0" stroke="#d098c0" stroke-width="1.51"/><path d="M1304,25L1343,-52L1284,-84Z" fill="#af9dc8" stroke="#af9dc8" stroke-width="1.51"/><path d="M1408,151L1360,90L1309,162Z" fill="#d296bf" stroke="#d296bf" stroke-width="1.51"/><path d="M1408,151L1309,162L1425,199Z" fill="#e285b5" stroke="#e285b5" stroke-width="1.51"/><path d="M599,98L617,84L520,56Z" fill="#6ac7e4" stroke="#6ac7e4" stroke-width="1.51"/><path d="M687,5L617,84L700,50Z" fill="#69c4e3" stroke="#69c4e3" stroke-width="1.51"/><path d="M673,195L635,292L728,274Z" fill="#c3a2c7" stroke="#c3a2c7" stroke-width="1.51"/><path d="M1360,90L1367,32L1304,25Z" fill="#b8a1c8" stroke="#b8a1c8" stroke-width="1.51"/><path d="M599,98L607,183L682,164Z" fill="#9eb8d6" stroke="#9eb8d6" stroke-width="1.51"/><path d="M607,183L605,198L673,195Z" fill="#bba8ca" stroke="#bba8ca" stroke-width="1.51"/><path d="M517,155L605,198L607,183Z" fill="#b1acce" stroke="#b1acce" stroke-width="1.51"/><path d="M605,198L635,292L673,195Z" fill="#c0a4c8" stroke="#c0a4c8" stroke-width="1.51"/><path d="M617,84L599,98L682,164Z" fill="#82c4df" stroke="#82c4df" stroke-width="1.51"/><path d="M575,-57L617,84L687,5Z" fill="#58c2e4" stroke="#58c2e4" stroke-width="1.51"/><path d="M618,-73L687,5L722,-37Z" fill="#5dc0e3" stroke="#5dc0e3" stroke-width="1.51"/><path d="M1367,32L1343,-52L1304,25Z" fill="#b09dc8" stroke="#b09dc8" stroke-width="1.51"/><path d="M1278,357L1350,305L1249,272Z" fill="#ee76ad" stroke="#ee76ad" stroke-width="1.51"/><path d="M1360,90L1389,64L1367,32Z" fill="#baa1c8" stroke="#baa1c8" stroke-width="1.51"/><path d="M1367,32L1424,23L1343,-52Z" fill="#af9dc8" stroke="#af9dc8" stroke-width="1.51"/><path d="M1408,151L1389,64L1360,90Z" fill="#c1a4c8" stroke="#c1a4c8" stroke-width="1.51"/><path d="M635,292L654,360L728,274Z" fill="#c3a2c7" stroke="#c3a2c7" stroke-width="1.51"/><path d="M742,385L591,397L799,417Z" fill="#c6a0c5" stroke="#c6a0c5" stroke-width="1.51"/><path d="M559,332L654,360L635,292Z" fill="#bfa4c8" stroke="#bfa4c8" stroke-width="1.51"/><path d="M1425,199L1309,162L1306,230Z" fill="#ed78ae" stroke="#ed78ae" stroke-width="1.51"/><path d="M1427,272L1425,199L1306,230Z" fill="#ee76ad" stroke="#ee76ad" stroke-width="1.51"/><path d="M1278,357L1351,346L1350,305Z" fill="#ee76ad" stroke="#ee76ad" stroke-width="1.51"/><path d="M1418,409L1351,346L1278,357Z" fill="#ee76ad" stroke="#ee76ad" stroke-width="1.51"/><path d="M749,-67L618,-73L722,-37Z" fill="#62bfe2" stroke="#62bfe2" stroke-width="1.51"/><path d="M811,-107L618,-73L749,-67Z" fill="#68bde0" stroke="#68bde0" stroke-width="1.51"/><path d="M1427,272L1306,230L1350,305Z" fill="#ee76ad" stroke="#ee76ad" stroke-width="1.51"/><path d="M1496,41L1424,23L1389,64Z" fill="#b6a0c8" stroke="#b6a0c8" stroke-width="1.51"/><path d="M1389,64L1424,23L1367,32Z" fill="#b6a0c8" stroke="#b6a0c8" stroke-width="1.51"/><path d="M1461,12L1424,23L1496,41Z" fill="#b49fc8" stroke="#b49fc8" stroke-width="1.51"/><path d="M618,-73L575,-57L687,5Z" fill="#55c1e4" stroke="#55c1e4" stroke-width="1.51"/><path d="M599,98L517,155L607,183Z" fill="#9bb8d7" stroke="#9bb8d7" stroke-width="1.51"/><path d="M1496,41L1389,64L1504,130Z" fill="#bca3c8" stroke="#bca3c8" stroke-width="1.51"/><path d="M1351,346L1427,272L1350,305Z" fill="#ee76ad" stroke="#ee76ad" stroke-width="1.51"/><path d="M515,232L559,332L635,292Z" fill="#bea3c8" stroke="#bea3c8" stroke-width="1.51"/><path d="M520,56L517,155L599,98Z" fill="#72c7e3" stroke="#72c7e3" stroke-width="1.51"/><path d="M538,-22L520,56L617,84Z" fill="#5ec3e4" stroke="#5ec3e4" stroke-width="1.51"/><path d="M575,-57L538,-22L617,84Z" fill="#53c1e4" stroke="#53c1e4" stroke-width="1.51"/><path d="M654,360L591,397L742,385Z" fill="#c2a3c7" stroke="#c2a3c7" stroke-width="1.51"/><path d="M515,232L635,292L605,198Z" fill="#bfa4c8" stroke="#bfa4c8" stroke-width="1.51"/><path d="M559,332L591,397L654,360Z" fill="#bfa4c8" stroke="#bfa4c8" stroke-width="1.51"/><path d="M1424,23L1438,-65L1343,-52Z" fill="#af9dc8" stroke="#af9dc8" stroke-width="1.51"/><path d="M1389,64L1408,151L1504,130Z" fill="#c89ec4" stroke="#c89ec4" stroke-width="1.51"/><path d="M1461,12L1438,-65L1424,23Z" fill="#af9dc8" stroke="#af9dc8" stroke-width="1.51"/><path d="M1343,-52L1438,-65L1284,-84Z" fill="#af9dc8" stroke="#af9dc8" stroke-width="1.51"/><path d="M517,155L515,232L605,198Z" fill="#bba5ca" stroke="#bba5ca" stroke-width="1.51"/><path d="M538,-22L516,-32L520,56Z" fill="#4fc0e4" stroke="#4fc0e4" stroke-width="1.51"/><path d="M520,56L423,107L517,155Z" fill="#73c5e3" stroke="#73c5e3" stroke-width="1.51"/><path d="M414,255L496,316L515,232Z" fill="#bca2c8" stroke="#bca2c8" stroke-width="1.51"/><path d="M528,-79L516,-32L538,-22Z" fill="#50c0e4" stroke="#50c0e4" stroke-width="1.51"/><path d="M575,-57L528,-79L538,-22Z" fill="#50c0e4" stroke="#50c0e4" stroke-width="1.51"/><path d="M618,-73L528,-79L575,-57Z" fill="#52c0e4" stroke="#52c0e4" stroke-width="1.51"/><path d="M811,-107L528,-79L618,-73Z" fill="#58c1e4" stroke="#58c1e4" stroke-width="1.51"/><path d="M1461,12L1470,-57L1438,-65Z" fill="#af9dc8" stroke="#af9dc8" stroke-width="1.51"/><path d="M1504,130L1408,151L1425,199Z" fill="#de8ab8" stroke="#de8ab8" stroke-width="1.51"/><path d="M1493,260L1504,130L1425,199Z" fill="#ed78ae" stroke="#ed78ae" stroke-width="1.51"/><path d="M1351,346L1418,409L1427,272Z" fill="#ee76ad" stroke="#ee76ad" stroke-width="1.51"/><path d="M1192,370L1418,409L1278,357Z" fill="#ee76ad" stroke="#ee76ad" stroke-width="1.51"/><path d="M1080,386L1418,409L1192,370Z" fill="#eb7aaf" stroke="#eb7aaf" stroke-width="1.51"/><path d="M799,417L1418,409L1080,386Z" fill="#e385b4" stroke="#e385b4" stroke-width="1.51"/><path d="M1496,41L1470,-57L1461,12Z" fill="#af9dc8" stroke="#af9dc8" stroke-width="1.51"/><path d="M1493,260L1425,199L1427,272Z" fill="#ee76ad" stroke="#ee76ad" stroke-width="1.51"/><path d="M1491,281L1493,260L1427,272Z" fill="#ee76ad" stroke="#ee76ad" stroke-width="1.51"/><path d="M559,332L532,374L591,397Z" fill="#bea3c8" stroke="#bea3c8" stroke-width="1.51"/><path d="M496,316L532,374L559,332Z" fill="#bda3c8" stroke="#bda3c8" stroke-width="1.51"/><path d="M1494,400L1491,281L1427,272Z" fill="#ee76ad" stroke="#ee76ad" stroke-width="1.51"/><path d="M411,179L515,232L517,155Z" fill="#b5a7cb" stroke="#b5a7cb" stroke-width="1.51"/><path d="M515,232L496,316L559,332Z" fill="#bda3c8" stroke="#bda3c8" stroke-width="1.51"/><path d="M439,-27L423,107L520,56Z" fill="#5bc3e4" stroke="#5bc3e4" stroke-width="1.51"/><path d="M439,-27L520,56L516,-32Z" fill="#4ec0e4" stroke="#4ec0e4" stroke-width="1.51"/><path d="M1418,409L1494,400L1427,272Z" fill="#ee76ad" stroke="#ee76ad" stroke-width="1.51"/><path d="M1600,279L1560,218L1493,260Z" fill="#ee76ad" stroke="#ee76ad" stroke-width="1.51"/><path d="M1493,260L1560,218L1504,130Z" fill="#ee76ad" stroke="#ee76ad" stroke-width="1.51"/><path d="M429,-91L439,-27L516,-32Z" fill="#4cbfe4" stroke="#4cbfe4" stroke-width="1.51"/><path d="M1600,279L1493,260L1491,281Z" fill="#ee76ad" stroke="#ee76ad" stroke-width="1.51"/><path d="M1504,130L1571,106L1496,41Z" fill="#bfa4c8" stroke="#bfa4c8" stroke-width="1.51"/><path d="M1496,41L1578,-18L1470,-57Z" fill="#af9dc8" stroke="#af9dc8" stroke-width="1.51"/><path d="M1572,115L1571,106L1504,130Z" fill="#c99dc3" stroke="#c99dc3" stroke-width="1.51"/><path d="M1560,218L1572,115L1504,130Z" fill="#db8db9" stroke="#db8db9" stroke-width="1.51"/><path d="M379,210L411,179L336,159Z" fill="#afa8cd" stroke="#afa8cd" stroke-width="1.51"/><path d="M423,107L411,179L517,155Z" fill="#98b7d7" stroke="#98b7d7" stroke-width="1.51"/><path d="M411,179L414,255L515,232Z" fill="#bba2c8" stroke="#bba2c8" stroke-width="1.51"/><path d="M496,316L390,411L532,374Z" fill="#bca2c8" stroke="#bca2c8" stroke-width="1.51"/><path d="M528,-79L429,-91L516,-32Z" fill="#4ebfe4" stroke="#4ebfe4" stroke-width="1.51"/><path d="M439,-27L371,48L423,107Z" fill="#57c2e4" stroke="#57c2e4" stroke-width="1.51"/><path d="M811,-107L429,-91L528,-79Z" fill="#53c1e4" stroke="#53c1e4" stroke-width="1.51"/><path d="M1621,35L1496,41L1571,106Z" fill="#b9a1c8" stroke="#b9a1c8" stroke-width="1.51"/><path d="M1621,35L1578,-18L1496,41Z" fill="#b39fc8" stroke="#b39fc8" stroke-width="1.51"/><path d="M379,210L402,273L414,255Z" fill="#baa1c8" stroke="#baa1c8" stroke-width="1.51"/><path d="M414,255L402,273L496,316Z" fill="#bba2c8" stroke="#bba2c8" stroke-width="1.51"/><path d="M379,210L414,255L411,179Z" fill="#baa1c8" stroke="#baa1c8" stroke-width="1.51"/><path d="M336,159L411,179L423,107Z" fill="#97b5d6" stroke="#97b5d6" stroke-width="1.51"/><path d="M324,-25L371,48L439,-27Z" fill="#47bee4" stroke="#47bee4" stroke-width="1.51"/><path d="M1560,218L1623,120L1572,115Z" fill="#d98eba" stroke="#d98eba" stroke-width="1.51"/><path d="M1572,115L1623,120L1571,106Z" fill="#c79fc4" stroke="#c79fc4" stroke-width="1.51"/><path d="M1620,309L1600,279L1491,281Z" fill="#ee76ad" stroke="#ee76ad" stroke-width="1.51"/><path d="M1578,-18L1572,-117L1470,-57Z" fill="#af9dc8" stroke="#af9dc8" stroke-width="1.51"/><path d="M1470,-57L1572,-117L1438,-65Z" fill="#af9dc8" stroke="#af9dc8" stroke-width="1.51"/><path d="M1438,-65L1572,-117L1284,-84Z" fill="#af9dc8" stroke="#af9dc8" stroke-width="1.51"/><path d="M1284,-84L1572,-117L1072,-100Z" fill="#af9dc8" stroke="#af9dc8" stroke-width="1.51"/><path d="M1072,-100L1572,-117L811,-107Z" fill="#a2a5ce" stroke="#a2a5ce" stroke-width="1.51"/><path d="M1654,-47L1572,-117L1578,-18Z" fill="#af9dc8" stroke="#af9dc8" stroke-width="1.51"/><path d="M1650,206L1623,120L1560,218Z" fill="#e780b2" stroke="#e780b2" stroke-width="1.51"/><path d="M1623,120L1621,35L1571,106Z" fill="#bea3c8" stroke="#bea3c8" stroke-width="1.51"/><path d="M799,417L1577,416L1418,409Z" fill="#ed78ad" stroke="#ed78ad" stroke-width="1.51"/><path d="M1418,409L1577,416L1494,400Z" fill="#ee76ad" stroke="#ee76ad" stroke-width="1.51"/><path d="M1494,400L1620,309L1491,281Z" fill="#ee76ad" stroke="#ee76ad" stroke-width="1.51"/><path d="M1577,416L1620,309L1494,400Z" fill="#ee76ad" stroke="#ee76ad" stroke-width="1.51"/><path d="M1600,279L1650,206L1560,218Z" fill="#ee76ad" stroke="#ee76ad" stroke-width="1.51"/><path d="M379,210L336,312L402,273Z" fill="#b9a1c8" stroke="#b9a1c8" stroke-width="1.51"/><path d="M371,48L336,159L423,107Z" fill="#6dc5e3" stroke="#6dc5e3" stroke-width="1.51"/><path d="M1674,3L1654,-47L1621,35Z" fill="#af9dc8" stroke="#af9dc8" stroke-width="1.51"/><path d="M1695,259L1650,206L1600,279Z" fill="#ee76ad" stroke="#ee76ad" stroke-width="1.51"/><path d="M336,312L390,411L402,273Z" fill="#b9a1c8" stroke="#b9a1c8" stroke-width="1.51"/><path d="M402,273L390,411L496,316Z" fill="#baa2c8" stroke="#baa2c8" stroke-width="1.51"/><path d="M532,374L390,411L591,397Z" fill="#bda3c8" stroke="#bda3c8" stroke-width="1.51"/><path d="M591,397L390,411L799,417Z" fill="#bfa4c8" stroke="#bfa4c8" stroke-width="1.51"/><path d="M371,48L291,76L336,159Z" fill="#64c5e4" stroke="#64c5e4" stroke-width="1.51"/><path d="M429,-91L355,-88L439,-27Z" fill="#48bfe4" stroke="#48bfe4" stroke-width="1.51"/><path d="M267,-112L355,-88L429,-91Z" fill="#45bee4" stroke="#45bee4" stroke-width="1.51"/><path d="M287,275L336,312L379,210Z" fill="#b8a1c8" stroke="#b8a1c8" stroke-width="1.51"/><path d="M355,-88L324,-25L439,-27Z" fill="#47bee4" stroke="#47bee4" stroke-width="1.51"/><path d="M336,159L297,185L379,210Z" fill="#afa7cc" stroke="#afa7cc" stroke-width="1.51"/><path d="M1674,3L1621,35L1714,89Z" fill="#b6a0c8" stroke="#b6a0c8" stroke-width="1.51"/><path d="M1621,35L1654,-47L1578,-18Z" fill="#af9dc8" stroke="#af9dc8" stroke-width="1.51"/><path d="M1714,89L1621,35L1623,120Z" fill="#bda3c8" stroke="#bda3c8" stroke-width="1.51"/><path d="M291,76L297,185L336,159Z" fill="#8eb7d9" stroke="#8eb7d9" stroke-width="1.51"/><path d="M324,-25L291,76L371,48Z" fill="#50c0e4" stroke="#50c0e4" stroke-width="1.51"/><path d="M1620,309L1695,259L1600,279Z" fill="#ee76ad" stroke="#ee76ad" stroke-width="1.51"/><path d="M1727,143L1714,89L1623,120Z" fill="#c99dc3" stroke="#c99dc3" stroke-width="1.51"/><path d="M1577,416L1648,384L1620,309Z" fill="#ee76ad" stroke="#ee76ad" stroke-width="1.51"/><path d="M242,360L337,394L336,312Z" fill="#b7a1c8" stroke="#b7a1c8" stroke-width="1.51"/><path d="M336,312L337,394L390,411Z" fill="#b9a1c8" stroke="#b9a1c8" stroke-width="1.51"/><path d="M324,-25L300,-31L291,76Z" fill="#45bee4" stroke="#45bee4" stroke-width="1.51"/><path d="M355,-88L300,-31L324,-25Z" fill="#43bee4" stroke="#43bee4" stroke-width="1.51"/><path d="M1711,289L1695,259L1620,309Z" fill="#ee76ad" stroke="#ee76ad" stroke-width="1.51"/><path d="M297,185L287,275L379,210Z" fill="#b8a1c8" stroke="#b8a1c8" stroke-width="1.51"/><path d="M234,242L287,275L297,185Z" fill="#b6a0c8" stroke="#b6a0c8" stroke-width="1.51"/><path d="M1674,3L1690,-61L1654,-47Z" fill="#af9dc8" stroke="#af9dc8" stroke-width="1.51"/><path d="M1654,-47L1690,-61L1572,-117Z" fill="#af9dc8" stroke="#af9dc8" stroke-width="1.51"/><path d="M1736,0L1690,-61L1674,3Z" fill="#af9dc8" stroke="#af9dc8" stroke-width="1.51"/><path d="M1727,143L1623,120L1650,206Z" fill="#dc8cb9" stroke="#dc8cb9" stroke-width="1.51"/><path d="M1714,89L1736,0L1674,3Z" fill="#b4a0c8" stroke="#b4a0c8" stroke-width="1.51"/><path d="M1695,259L1727,143L1650,206Z" fill="#ee76ad" stroke="#ee76ad" stroke-width="1.51"/><path d="M1818,205L1809,157L1727,143Z" fill="#e186b5" stroke="#e186b5" stroke-width="1.51"/><path d="M1648,384L1711,289L1620,309Z" fill="#ee76ad" stroke="#ee76ad" stroke-width="1.51"/><path d="M1815,23L1736,0L1714,89Z" fill="#b6a0c8" stroke="#b6a0c8" stroke-width="1.51"/><path d="M229,212L234,242L297,185Z" fill="#b6a0c8" stroke="#b6a0c8" stroke-width="1.51"/><path d="M154,93L157,127L291,76Z" fill="#5fc4e4" stroke="#5fc4e4" stroke-width="1.51"/><path d="M355,-88L267,-112L300,-31Z" fill="#42bde4" stroke="#42bde4" stroke-width="1.51"/><path d="M811,-107L267,-112L429,-91Z" fill="#4ec0e4" stroke="#4ec0e4" stroke-width="1.51"/><path d="M1572,-117L267,-112L811,-107Z" fill="#82b5d9" stroke="#82b5d9" stroke-width="1.51"/><path d="M287,275L242,360L336,312Z" fill="#b7a1c8" stroke="#b7a1c8" stroke-width="1.51"/><path d="M229,212L297,185L291,76Z" fill="#9bb0d4" stroke="#9bb0d4" stroke-width="1.51"/><path d="M157,127L229,212L291,76Z" fill="#8ab7d9" stroke="#8ab7d9" stroke-width="1.51"/><path d="M183,305L287,275L234,242Z" fill="#b5a0c8" stroke="#b5a0c8" stroke-width="1.51"/><path d="M183,305L242,360L287,275Z" fill="#b6a0c8" stroke="#b6a0c8" stroke-width="1.51"/><path d="M1648,384L1756,359L1711,289Z" fill="#ee76ad" stroke="#ee76ad" stroke-width="1.51"/><path d="M1818,205L1727,143L1695,259Z" fill="#ee76ad" stroke="#ee76ad" stroke-width="1.51"/><path d="M1727,143L1820,101L1714,89Z" fill="#c6a0c5" stroke="#c6a0c5" stroke-width="1.51"/><path d="M1812,417L1756,359L1648,384Z" fill="#ee76ad" stroke="#ee76ad" stroke-width="1.51"/><path d="M1818,205L1695,259L1711,289Z" fill="#ee76ad" stroke="#ee76ad" stroke-width="1.51"/><path d="M229,212L183,305L234,242Z" fill="#b5a0c8" stroke="#b5a0c8" stroke-width="1.51"/><path d="M80,258L183,305L229,212Z" fill="#b49fc8" stroke="#b49fc8" stroke-width="1.51"/><path d="M1809,157L1820,101L1727,143Z" fill="#d196bf" stroke="#d196bf" stroke-width="1.51"/><path d="M1736,0L1801,-55L1690,-61Z" fill="#af9dc8" stroke="#af9dc8" stroke-width="1.51"/><path d="M1815,23L1801,-55L1736,0Z" fill="#af9dc8" stroke="#af9dc8" stroke-width="1.51"/><path d="M1690,-61L1921,-107L1572,-117Z" fill="#af9dc8" stroke="#af9dc8" stroke-width="1.51"/><path d="M1820,101L1815,23L1714,89Z" fill="#bba2c8" stroke="#bba2c8" stroke-width="1.51"/><path d="M1839,311L1818,205L1711,289Z" fill="#ee76ad" stroke="#ee76ad" stroke-width="1.51"/><path d="M1809,157L1882,182L1820,101Z" fill="#d790bb" stroke="#d790bb" stroke-width="1.51"/><path d="M154,93L291,76L155,28Z" fill="#54c1e4" stroke="#54c1e4" stroke-width="1.51"/><path d="M267,-112L187,-108L300,-31Z" fill="#3ebde4" stroke="#3ebde4" stroke-width="1.51"/><path d="M183,305L201,404L242,360Z" fill="#b5a0c8" stroke="#b5a0c8" stroke-width="1.51"/><path d="M242,360L201,404L337,394Z" fill="#b6a0c8" stroke="#b6a0c8" stroke-width="1.51"/><path d="M337,394L201,404L390,411Z" fill="#b7a1c8" stroke="#b7a1c8" stroke-width="1.51"/><path d="M155,28L291,76L300,-31Z" fill="#48bfe4" stroke="#48bfe4" stroke-width="1.51"/><path d="M133,-20L155,28L300,-31Z" fill="#3abce4" stroke="#3abce4" stroke-width="1.51"/><path d="M183,305L152,410L201,404Z" fill="#b49fc8" stroke="#b49fc8" stroke-width="1.51"/><path d="M157,127L134,138L229,212Z" fill="#99afd3" stroke="#99afd3" stroke-width="1.51"/><path d="M134,109L134,138L157,127Z" fill="#7abbdd" stroke="#7abbdd" stroke-width="1.51"/><path d="M134,109L157,127L154,93Z" fill="#69c0e2" stroke="#69c0e2" stroke-width="1.51"/><path d="M155,28L134,109L154,93Z" fill="#55c1e4" stroke="#55c1e4" stroke-width="1.51"/><path d="M63,100L134,109L155,28Z" fill="#55c1e4" stroke="#55c1e4" stroke-width="1.51"/><path d="M1756,359L1839,311L1711,289Z" fill="#ee76ad" stroke="#ee76ad" stroke-width="1.51"/><path d="M1818,205L1875,189L1809,157Z" fill="#e87fb1" stroke="#e87fb1" stroke-width="1.51"/><path d="M1919,59L1866,-36L1815,23Z" fill="#b29ec8" stroke="#b29ec8" stroke-width="1.51"/><path d="M187,-108L133,-20L300,-31Z" fill="#3bbce4" stroke="#3bbce4" stroke-width="1.51"/><path d="M40,210L80,258L134,138Z" fill="#b29ec8" stroke="#b29ec8" stroke-width="1.51"/><path d="M1756,359L1812,417L1839,311Z" fill="#ee76ad" stroke="#ee76ad" stroke-width="1.51"/><path d="M1577,416L1812,417L1648,384Z" fill="#ee76ad" stroke="#ee76ad" stroke-width="1.51"/><path d="M799,417L1812,417L1577,416Z" fill="#ee76ad" stroke="#ee76ad" stroke-width="1.51"/><path d="M1882,182L1875,189L1991,210Z" fill="#ec7aae" stroke="#ec7aae" stroke-width="1.51"/><path d="M1839,311L1875,189L1818,205Z" fill="#ee76ad" stroke="#ee76ad" stroke-width="1.51"/><path d="M1815,23L1866,-36L1801,-55Z" fill="#af9dc8" stroke="#af9dc8" stroke-width="1.51"/><path d="M87,332L152,410L183,305Z" fill="#b39fc8" stroke="#b39fc8" stroke-width="1.51"/><path d="M201,404L152,410L390,411Z" fill="#b6a0c8" stroke="#b6a0c8" stroke-width="1.51"/><path d="M390,411L-100,415L799,417Z" fill="#b9a1c8" stroke="#b9a1c8" stroke-width="1.51"/><path d="M187,-108L119,-43L133,-20Z" fill="#36bbe4" stroke="#36bbe4" stroke-width="1.51"/><path d="M133,-20L63,100L155,28Z" fill="#45bee4" stroke="#45bee4" stroke-width="1.51"/><path d="M134,138L80,258L229,212Z" fill="#b39fc8" stroke="#b39fc8" stroke-width="1.51"/><path d="M1919,59L1815,23L1820,101Z" fill="#b9a1c8" stroke="#b9a1c8" stroke-width="1.51"/><path d="M1875,189L1882,182L1809,157Z" fill="#e483b3" stroke="#e483b3" stroke-width="1.51"/><path d="M1911,314L1875,189L1839,311Z" fill="#ee76ad" stroke="#ee76ad" stroke-width="1.51"/><path d="M1866,-36L1874,-72L1801,-55Z" fill="#af9dc8" stroke="#af9dc8" stroke-width="1.51"/><path d="M1801,-55L1921,-107L1690,-61Z" fill="#af9dc8" stroke="#af9dc8" stroke-width="1.51"/><path d="M1921,-107L1874,-72L1979,-5Z" fill="#af9dc8" stroke="#af9dc8" stroke-width="1.51"/><path d="M63,100L134,138L134,109Z" fill="#6fbee0" stroke="#6fbee0" stroke-width="1.51"/><path d="M80,258L87,332L183,305Z" fill="#b29fc8" stroke="#b29fc8" stroke-width="1.51"/><path d="M12,9L63,100L133,-20Z" fill="#3fbde4" stroke="#3fbde4" stroke-width="1.51"/><path d="M80,258L47,283L87,332Z" fill="#b19ec8" stroke="#b19ec8" stroke-width="1.51"/><path d="M1882,182L1919,59L1820,101Z" fill="#c79ec4" stroke="#c79ec4" stroke-width="1.51"/><path d="M1960,125L1919,59L1882,182Z" fill="#cc9bc2" stroke="#cc9bc2" stroke-width="1.51"/><path d="M1926,334L1911,314L1839,311Z" fill="#ee76ad" stroke="#ee76ad" stroke-width="1.51"/><path d="M27,186L40,210L134,138Z" fill="#a3a7ce" stroke="#a3a7ce" stroke-width="1.51"/><path d="M40,210L47,283L80,258Z" fill="#b19ec8" stroke="#b19ec8" stroke-width="1.51"/><path d="M1910,404L1926,334L1839,311Z" fill="#ee76ad" stroke="#ee76ad" stroke-width="1.51"/><path d="M1991,210L1960,125L1882,182Z" fill="#e384b4" stroke="#e384b4" stroke-width="1.51"/><path d="M1874,-72L1921,-107L1801,-55Z" fill="#af9dc8" stroke="#af9dc8" stroke-width="1.51"/><path d="M1979,-5L1874,-72L1866,-36Z" fill="#af9dc8" stroke="#af9dc8" stroke-width="1.51"/><path d="M1979,-5L1866,-36L1919,59Z" fill="#b09ec8" stroke="#b09ec8" stroke-width="1.51"/><path d="M1812,417L1910,404L1839,311Z" fill="#ee76ad" stroke="#ee76ad" stroke-width="1.51"/><path d="M40,210L-45,202L47,283Z" fill="#b09dc8" stroke="#b09dc8" stroke-width="1.51"/><path d="M63,100L27,186L134,138Z" fill="#88b4d8" stroke="#88b4d8" stroke-width="1.51"/><path d="M-47,106L27,186L63,100Z" fill="#7cb7db" stroke="#7cb7db" stroke-width="1.51"/><path d="M1991,210L1875,189L1911,314Z" fill="#ee76ad" stroke="#ee76ad" stroke-width="1.51"/><path d="M1960,125L1966,36L1919,59Z" fill="#bca2c8" stroke="#bca2c8" stroke-width="1.51"/><path d="M119,-43L12,9L133,-20Z" fill="#32bbe4" stroke="#32bbe4" stroke-width="1.51"/><path d="M12,-43L12,9L119,-43Z" fill="#2ebae4" stroke="#2ebae4" stroke-width="1.51"/><path d="M187,-108L12,-43L119,-43Z" fill="#33bbe4" stroke="#33bbe4" stroke-width="1.51"/><path d="M2036,12L1979,-5L1966,36Z" fill="#b29ec8" stroke="#b29ec8" stroke-width="1.51"/><path d="M1966,36L1979,-5L1919,59Z" fill="#b49fc8" stroke="#b49fc8" stroke-width="1.51"/><path d="M2050,78L2036,12L1966,36Z" fill="#b6a0c8" stroke="#b6a0c8" stroke-width="1.51"/><path d="M2020,296L1991,210L1911,314Z" fill="#ee76ad" stroke="#ee76ad" stroke-width="1.51"/><path d="M2020,296L1911,314L1926,334Z" fill="#ee76ad" stroke="#ee76ad" stroke-width="1.51"/><path d="M1910,404L1965,391L1926,334Z" fill="#ee76ad" stroke="#ee76ad" stroke-width="1.51"/><path d="M-32,319L10,366L47,283Z" fill="#b09dc8" stroke="#b09dc8" stroke-width="1.51"/><path d="M47,283L10,366L87,332Z" fill="#b19ec8" stroke="#b19ec8" stroke-width="1.51"/><path d="M87,332L10,366L152,410Z" fill="#b29ec8" stroke="#b29ec8" stroke-width="1.51"/><path d="M-45,202L40,210L27,186Z" fill="#af9ec8" stroke="#af9ec8" stroke-width="1.51"/><path d="M-47,106L63,100L12,9Z" fill="#4cbfe4" stroke="#4cbfe4" stroke-width="1.51"/><path d="M1991,210L2015,188L1960,125Z" fill="#e384b4" stroke="#e384b4" stroke-width="1.51"/><path d="M2072,245L2015,188L1991,210Z" fill="#ee76ad" stroke="#ee76ad" stroke-width="1.51"/><path d="M-57,-22L-47,106L12,9Z" fill="#3bbce4" stroke="#3bbce4" stroke-width="1.51"/><path d="M-49,168L-45,202L27,186Z" fill="#a6a3cc" stroke="#a6a3cc" stroke-width="1.51"/><path d="M-47,106L-49,168L27,186Z" fill="#90afd5" stroke="#90afd5" stroke-width="1.51"/><path d="M-35,354L-126,304L-100,415Z" fill="#af9dc8" stroke="#af9dc8" stroke-width="1.51"/><path d="M-45,202L-32,319L47,283Z" fill="#af9dc8" stroke="#af9dc8" stroke-width="1.51"/><path d="M1965,391L2020,296L1926,334Z" fill="#ee76ad" stroke="#ee76ad" stroke-width="1.51"/><path d="M2050,78L1966,36L1960,125Z" fill="#bda3c8" stroke="#bda3c8" stroke-width="1.51"/><path d="M1979,-5L2023,-95L1921,-107Z" fill="#af9dc8" stroke="#af9dc8" stroke-width="1.51"/><path d="M2050,78L1960,125L2015,188Z" fill="#d097c0" stroke="#d097c0" stroke-width="1.51"/><path d="M-102,210L-32,319L-45,202Z" fill="#af9dc8" stroke="#af9dc8" stroke-width="1.51"/><path d="M-32,319L-35,354L10,366Z" fill="#af9dc8" stroke="#af9dc8" stroke-width="1.51"/><path d="M10,366L-100,415L152,410Z" fill="#b09dc8" stroke="#b09dc8" stroke-width="1.51"/><path d="M2036,12L2023,-95L1979,-5Z" fill="#af9dc8" stroke="#af9dc8" stroke-width="1.51"/><path d="M-47,106L-104,94L-49,168Z" fill="#73bade" stroke="#73bade" stroke-width="1.51"/><path d="M12,-43L-57,-22L12,9Z" fill="#29bae4" stroke="#29bae4" stroke-width="1.51"/><path d="M187,-108L-48,-57L12,-43Z" fill="#2ebae4" stroke="#2ebae4" stroke-width="1.51"/><path d="M-48,-57L-57,-22L12,-43Z" fill="#29bae4" stroke="#29bae4" stroke-width="1.51"/><path d="M2036,12L2092,-20L2023,-95Z" fill="#af9dc8" stroke="#af9dc8" stroke-width="1.51"/><path d="M2078,145L2050,78L2015,188Z" fill="#d395be" stroke="#d395be" stroke-width="1.51"/><path d="M2072,245L2078,145L2015,188Z" fill="#eb7aaf" stroke="#eb7aaf" stroke-width="1.51"/><path d="M1965,391L2039,404L2020,296Z" fill="#ee76ad" stroke="#ee76ad" stroke-width="1.51"/><path d="M1910,404L2039,404L1965,391Z" fill="#ee76ad" stroke="#ee76ad" stroke-width="1.51"/><path d="M1812,417L2039,404L1910,404Z" fill="#ee76ad" stroke="#ee76ad" stroke-width="1.51"/><path d="M2050,78L2092,-20L2036,12Z" fill="#b39fc8" stroke="#b39fc8" stroke-width="1.51"/><path d="M2072,245L1991,210L2020,296Z" fill="#ee76ad" stroke="#ee76ad" stroke-width="1.51"/><path d="M2123,287L2072,245L2020,296Z" fill="#ee76ad" stroke="#ee76ad" stroke-width="1.51"/><path d="M-113,4L-47,106L-57,-22Z" fill="#39bce4" stroke="#39bce4" stroke-width="1.51"/><path d="M-113,4L-104,94L-47,106Z" fill="#4abfe4" stroke="#4abfe4" stroke-width="1.51"/><path d="M-49,168L-102,210L-45,202Z" fill="#aba0ca" stroke="#aba0ca" stroke-width="1.51"/><path d="M-131,139L-102,210L-49,168Z" fill="#9ea8d0" stroke="#9ea8d0" stroke-width="1.51"/><path d="M2136,262L2098,106L2078,145Z" fill="#e285b5" stroke="#e285b5" stroke-width="1.51"/><path d="M2078,145L2098,106L2050,78Z" fill="#c5a0c6" stroke="#c5a0c6" stroke-width="1.51"/><path d="M2098,106L2092,-20L2050,78Z" fill="#b8a1c8" stroke="#b8a1c8" stroke-width="1.51"/><path d="M-104,94L-131,139L-49,168Z" fill="#7eb6da" stroke="#7eb6da" stroke-width="1.51"/><path d="M-106,-77L-113,4L-57,-22Z" fill="#29bae4" stroke="#29bae4" stroke-width="1.51"/><path d="M-48,-57L-106,-77L-57,-22Z" fill="#29bae4" stroke="#29bae4" stroke-width="1.51"/><path d="M187,-108L-106,-77L-48,-57Z" fill="#2abae4" stroke="#2abae4" stroke-width="1.51"/><path d="M-106,-77L-131,139L-113,4Z" fill="#36bbe4" stroke="#36bbe4" stroke-width="1.51"/><path d="M-113,4L-131,139L-104,94Z" fill="#4ec0e4" stroke="#4ec0e4" stroke-width="1.51"/><path d="M-126,304L-32,319L-102,210Z" fill="#af9dc8" stroke="#af9dc8" stroke-width="1.51"/><path d="M-126,304L-35,354L-32,319Z" fill="#af9dc8" stroke="#af9dc8" stroke-width="1.51"/><path d="M-35,354L-100,415L10,366Z" fill="#af9dc8" stroke="#af9dc8" stroke-width="1.51"/><path d="M152,410L-100,415L390,411Z" fill="#b39fc8" stroke="#b39fc8" stroke-width="1.51"/><path d="M-131,139L-126,304L-102,210Z" fill="#af9dc8" stroke="#af9dc8" stroke-width="1.51"/><path d="M2098,106L2148,-56L2092,-20Z" fill="#b19ec8" stroke="#b19ec8" stroke-width="1.51"/><path d="M2072,245L2136,262L2078,145Z" fill="#ee76ad" stroke="#ee76ad" stroke-width="1.51"/><path d="M2039,404L2123,287L2020,296Z" fill="#ee76ad" stroke="#ee76ad" stroke-width="1.51"/><path d="M2123,287L2136,262L2072,245Z" fill="#ee76ad" stroke="#ee76ad" stroke-width="1.51"/><path d="M2136,262L2148,-56L2098,106Z" fill="#c2a2c7" stroke="#c2a2c7" stroke-width="1.51"/><path d="M2092,-20L2148,-56L2023,-95Z" fill="#af9dc8" stroke="#af9dc8" stroke-width="1.51"/><path d="M2039,404L2149,371L2123,287Z" fill="#ee76ad" stroke="#ee76ad" stroke-width="1.51"/><path d="M2123,287L2149,371L2136,262Z" fill="#ee76ad" stroke="#ee76ad" stroke-width="1.51"/><path d="M2136,262L2149,371L2148,-56Z" fill="#eb7aaf" stroke="#eb7aaf" stroke-width="1.51"/></svg>